<svg xmlns="http://www.w3.org/2000/svg" width="1768.234" height="362.96" viewBox="0 0 1768.234 362.96"><g style="stroke:none;stroke-width:5.37982;stroke-dasharray:none"><g style="stroke:none;stroke-width:3.48258;stroke-dasharray:none"><path d="M534.727 1031.973c-11.668-1.296-14.643-2.687-15.967-7.464-5.067-18.282-3.556-106.794 1.902-111.437 4.13-3.512 61.572-10.046 63.33-7.203.926 1.5 4.08 38.255 3.344 38.99-.361.361-6.765-1.273-14.231-3.631-13.224-4.178-21.707-5.093-24.194-2.612-1.084 1.082-1.512 55.698-.468 59.656 1.17 4.437 9.77 4.556 28.697.397 7.458-1.639 13.02-2.412 13.549-1.884 1.808 1.809-3.055 31.383-5.411 32.904-4.72 3.047-32.407 4.298-50.551 2.284m238.956 1.605c0-.33-1.777-10.343-3.95-22.25-10.663-58.457-17.243-99.355-16.16-100.44 1.143-1.142 33.062-6.09 33.898-5.254.505.505 8 71.554 8.17 77.462.098 3.336 1.39-1.042 7.963-26.985 11.514-45.443 9.75-40.588 14.928-41.1l3.35-.332 11.55 34c11.95 35.17 11.94 35.145 12.725 34.36.46-.46 2.73-36.224 4.07-64.114.364-7.565.953-13.932 1.309-14.149.629-.383 35.379 1.44 35.915 1.883 2.439 2.022-15.305 120.558-18.506 123.627-1.44 1.38-29.263 4.382-30.921 3.337-.867-.547-4.947-11.28-9.2-24.198-8.577-26.058-8.248-25.53-10.599-16.996-3.42 12.418-11.773 37.276-12.894 38.374-1.785 1.747-31.648 4.366-31.648 2.775m-172.484-.5c-1.161-3.033-2.24-122.376-1.117-123.518 1.4-1.423 33.81-5.501 34.953-4.399.47.453.36 9.516-.245 20.17-4.87 85.866-6.027 79.284 13.428 76.313 8.78-1.34 16.358-2.444 16.839-2.451.928-.015.625 4.378-1.412 20.486-1.654 13.083.03 12.084-21.706 12.866-10.316.372-23.582.958-29.48 1.304-8.691.509-10.826.363-11.26-.771" style="fill:#e81b25;fill-opacity:1;stroke:none;stroke-width:3.48258;stroke-dasharray:none" transform="translate(136.93 -1600.748)scale(1.83772)"/><path d="M341.683 1026.66c0-4.271.697-28.251 1.549-53.29l1.548-45.523-4.798-6.829c-7.1-10.102-7.912-11.627-6.784-12.745 3.08-3.054 74.918-4.735 76.052-1.78.59 1.536-2.221 25.317-3.174 26.859-.435.704-5.814.808-16.519.321l-15.874-.722v6.468c0 3.557.292 9.257.648 12.667l.648 6.2 5.102-.526c2.806-.29 9.49-.805 14.852-1.147l9.75-.62v13.034c0 16.13 2.421 14.387-20.75 14.934l-9.25.218v22.256l3.75-.564c35.25-5.303 33.67-5.86 32.617 11.508l-.867 14.3-11 .635c-6.05.349-21.463.966-34.25 1.372l-23.25.738z" style="fill:#fff;stroke:none;stroke-width:3.48258;stroke-dasharray:none" transform="translate(136.93 -1600.748)scale(1.83772)"/><path d="M257.683 982.613c0-36.904-.327-52.175-1.148-53.71-1.854-3.464-6.656-21.07-6.125-22.455 1.055-2.75 70.26-.496 73.45 2.391 9.498 8.596 13.942 57.475 6.574 72.31-3.284 6.609-26.243 16.03-39.068 16.03-1.635 0-1.71 1.186-1.07 16.943.688 16.943.688 16.943-1.713 17.425-3.472.697-23.825 2.635-27.65 2.634l-3.25-.001zm40.5-14.78 7-2.246-.014-9.954c-.031-21.603-.78-23.25-10.955-24.11l-7.855-.665.658 11.41c.361 6.277.66 15.124.662 19.661.01 9.597-.363 9.39 10.504 5.904m-114 65.313c-10.403-1.6-15.277-3.062-17.167-5.151-4.944-5.463-.756-110.782 4.665-117.314 3.55-4.277 63.656-8.033 66.856-4.177 6.812 8.207 11.887 105.075 6.279 119.826-2.258 5.938-39.281 10.1-60.633 6.816m30.388-33.581 3.388-.691-.596-20.597c-1.173-40.52-2.156-44.149-11.571-42.702-9.048 1.39-8.54.29-9.989 21.643-3.115 45.916-2.752 46.733 18.768 42.347" style="fill:#fff;stroke:none;stroke-width:3.48258;stroke-dasharray:none" transform="translate(136.93 -1600.748)scale(1.83772)"/><path d="M730.208 1034.22c-.38-.616-1.57-6.593-2.644-13.282-2.355-14.674-.497-13.139-14.005-11.573l-11.33 1.314-1.354 10.5c-1.637 12.685-1.883 12.99-9.692 11.96-3.3-.435-9.727-.829-14.281-.875-10.63-.109-10.478 3.442-1.69-39.59 13.493-66.06 12.758-61.64 11.546-69.447-.591-3.812-1.075-8.715-1.075-10.896v-3.965l9.75-.677c5.362-.372 17.175-1.275 26.25-2.006 19.811-1.595 15.994-7.321 24.136 36.207 3.785 20.234 8.664 46.014 10.843 57.29 5.05 26.13 5.422 28.633 4.365 29.287-.48.296-6.49 1.724-13.358 3.172-6.867 1.448-13.45 2.874-14.627 3.168s-2.453.03-2.834-.586m-8.227-50.79c.43-.775-7.913-46.199-8.614-46.9-.217-.217-.937 2.878-1.602 6.878l-3.988 24.021-2.781 16.75h8.284c4.557 0 8.472-.337 8.701-.75" style="fill:#e81b25;fill-opacity:1;stroke:none;stroke-width:3.48258;stroke-dasharray:none" transform="translate(136.93 -1600.748)scale(1.83772)"/><path d="M421.347 1027.43c-.343-4.263-.93-32.757-1.302-63.321l-.678-55.57 10.197-1.694c13.36-2.22 11.2-4.537 29.613 31.783 17.268 34.062 18.113 35.257 17.187 24.3-.338-3.987-.923-18.342-1.302-31.9l-.69-24.65 7.406-.668c4.073-.368 11.23-.525 15.905-.35l8.5.32-.085 6.5c-.047 3.574-.458 30.88-.913 60.68l-.827 54.18-9.465 3.622c-11.607 4.443-12.99 4.315-16.072-1.483-1.316-2.475-7.472-13.725-13.68-25-6.21-11.275-12.086-22.187-13.059-24.25-1.833-3.885-3.498-5.062-2.83-2 1.342 6.147 2.393 52.707 1.214 53.78-.706.642-6.508 1.685-12.895 2.318-17.189 1.705-15.5 2.392-16.224-6.598z" style="fill:#fff;stroke:none;stroke-width:3.48258;stroke-dasharray:none" transform="translate(136.93 -1600.748)scale(1.83772)"/></g></g><g style="stroke-width:2.1844"><path d="M594.688 117.576c-3.708.081-4.662 1.012-6.047 1.692s-2.725 1.451-4.3 2.378c-24.63 14.512-44.517 44.613-59.337 81.872s-24.19 81.947-24.94 126.324l-.238 13.998 5.188-.43c-10.544.868-27.4 3.751-38.496 6.541a308 308 0 0 1-7.141 1.697c-1.613-2.94-3.71-7.248-5.916-12.275-4.554-10.372-9.536-23.525-12.34-33.26-10.801-37.496-14.429-89.536-9.103-113.75l1.793-8.154a9.394 9.394 0 0 0-14.325-9.873l-2.172 1.424c-6.118 4.01-8.995 9.091-13.203 15.658s-8.249 13.988-10.84 20.7c-16.738 43.364-11.104 109.584 11.926 160.835-.577.311-.706.396-1.402.77-49.422 26.567-81.883 67.87-93.139 110.953-10.776 41.248-1.404 84.524 30.873 115.396-19.947 11.35-37.467 31.485-47.148 53.95-1.504 3.49-2.285 4.851-2.389 5.058-.012.005.005-.005-.008 0-39.754 15.573-57.184 58.528-54.896 102.242S260.69 851.4 300.8 878.066c30.808 20.483 74.581 30.337 109.55 30.858 17.485.26 32.65-1.558 44.055-7.362 4.024-2.047 7.719-4.83 10.441-8.482 1.65 2.856 3.7 5.397 6.252 7.52 4.812 4 11.525 5.848 17.858 4.843s12.172-4.346 17.586-9.328c15.08-13.876 22.71-18.833 34.969-23.16l4.93-1.74 13.144 6.578c34.951 17.495 66.342 27.64 94.816 30.156 3.94.348 10.597.974 14.672 1.377 45.624 4.518 95.54-5.099 132.375-25.879a268 268 0 0 1 6.133-3.36c.695.256 1.226.439 2.127.786 3.244 1.25 7.631 3.03 12.342 5.002 9.42 3.944 20.273 8.722 26.21 11.629 9.889 4.841 18.749 7.277 26.963 6.912s16.191-4.408 20.24-11.316c4.05-6.908 4.251-15.186 2.221-23.692-1.553-6.51-4.489-13.389-8.771-20.635 3.582-1.436 6.935-3.342 9.965-5.562 6.423-4.706 12.556-10.637 12.476-20.29-.075-9.109-4.315-17.222-10.008-25.321s-13.22-16.078-21.591-23.317c-15.816-13.675-33.718-25.183-51.073-26.431a24 24 0 0 1-1.988-1.881c-15.713-16.962-41.536-25.752-66.67-23.907-2.866.21-11.263-2.382-17.525-6.601-1.138-.766-2.126-1.584-3.12-2.393 8.516-1.627 15.794-3.329 22.3-5.55a35 35 0 0 1 5.511-1.405c.75.129 1.309.17 1.838.192 1.3.053 2.367.289 5.055-.787.008-.003.023-.015.031-.018.12-.002.21-.01.334-.012 25.973-.28 60.476-9.651 78.94-22.799l-.003.004-.982.698 3.031 1.017c69.103 23.197 150.314 20.037 224.088-2.595 73.774-22.633 140.352-64.774 179.443-121.485 22.279-32.319 35.473-61.458 40.637-86.342 5.164-24.883 2.338-46.194-9.568-60.681s-31.99-19.977-55.123-16.153c-22.752 3.762-49.412 15.977-79.445 37.592-.545-.075-1.201-.132-3.626-.617-29.108-5.82-65.345 4.473-95.025 24.664 2.339-5.112 4.039-10.375 4.824-15.51l-2.717.442c.924-.151 1.825-.399 2.743-.576.07-.473.222-.959.277-1.428l-.164 1.404c45.175-8.803 83.447-49.94 89.643-96.504v-.002l.425-3.195-.306.097c28.665-9.043 55.006-31.176 73.3-56.183 18.3-25.014 29.55-53.28 21.614-77.174-5.451-16.41-21.778-25.579-41.563-29.656-19.784-4.078-44.43-3.73-71.9.13-54.94 7.723-121.052 29.757-177.308 63.362-71.214 42.54-164.157 128.309-208.696 192.531-14.313-24.436-40.304-45.477-72.17-61.64-34.567-17.535-76.114-29.237-117.808-31.498l3.154.171-.115-1.363c-4.887-57.31 13.398-148.482 40.98-203.254 1.424-2.827 2.448-4.758 3.26-7.334.406-1.288 1.25-2.662.383-6.361-.434-1.85-1.876-4.464-4.09-5.963s-4.447-1.744-5.895-1.713m-22.247 39.787c-22.625 57.567-35.705 132.562-31.11 186.436l.81 9.5a9.394 9.394 0 0 0 8.85 8.58l5 .271h.001c38.847 2.107 78.19 13.192 110.328 29.495 32.14 16.302 56.828 37.967 67.338 59.402.972 1.982 1.612 3.51 2.75 5.402.57.947 1.207 2.081 2.914 3.502s5.451 2.86 8.567 2.287c6.23-1.145 6.813-4.006 8.117-5.756s2.547-3.673 4.27-6.222c40.894-60.499 136.175-148.994 205.04-190.131 53.772-32.121 118.206-53.566 170.291-60.887 26.043-3.66 49.03-3.727 65.495-.334 16.464 3.393 25 9.579 27.525 17.178 4.535 13.653-2.683 37.929-18.947 60.16s-40.574 42.04-63.81 49.365v.002l-5.368 1.694a9.39 9.39 0 0 0-6.484 7.716l-1.215 9.118v.002c-5.114 38.438-40.104 75.049-76.93 81.047l-4.121.671a9.394 9.394 0 0 0-7.816 8.176l-.645 5.492c-.515 4.383-3.86 13.31-7.717 19.123-.964 1.454-1.76 2.549-2.635 4.133s-2.567 4.627-1.35 9.028c1.219 4.4 4.294 6.179 5.874 7.076s2.819 1.405 4.385 2.13v-.001l4.902 2.271a9.39 9.39 0 0 0 9.635-1.045l4.902-3.728c26.867-20.433 63.67-30.605 86.875-25.965 3.389.677 5.518 1.161 8.358 1.174s6.82-1.517 8.51-2.746c29.05-21.135 54.09-32.171 72.95-35.29s30.567 1.052 37.547 9.545 10.138 23.484 5.686 44.938-16.474 48.69-37.711 79.498c-35.871 52.038-98.962 92.55-169.484 114.186-70.522 21.634-148.234 24.353-212.602 2.746l-7.566-2.54a9.4 9.4 0 0 0-8.434 1.25l-2.916 2.075-.002.002c-11.77 8.38-47.447 19.091-68.248 19.316a80 80 0 0 0-4.375.158 9 9 0 0 0-.898.504 9.4 9.4 0 0 0-1.274-.324c-4.18.424-8.093 1.334-12.09 2.7-7.025 2.399-14.477 4.177-25.914 6.097-2.1.352-3.998.715-5.535 1.053-.768.169-1.422.32-2.143.527-.36.104-.707.197-1.357.459-.325.131-.71.274-1.46.727-.752.452-2.514.482-4.081 5.027a9.4 9.4 0 0 0-.512 3.062v.004c0 6.1 2.828 10.474 5.98 14.284 3.154 3.809 7.071 7.133 11.417 10.06 8.691 5.855 18.653 10.545 29.396 9.756 19.516-1.433 40.92 6.501 51.514 17.938 1.49 1.609 2.991 3.023 4.52 4.242.764.61 1.513 1.166 2.496 1.746.982.58 1.572 1.668 5.699 1.668 8.073 0 27.056 9.319 41.84 22.101 7.392 6.392 13.991 13.48 18.51 19.909 4.517 6.428 6.572 12.304 6.591 14.675-.01-1.294-1.104 2.275-4.795 4.979s-8.91 4.55-11.744 4.55c-.862 0-1.72-.342-4.582.667-1.43.504-3.748 1.77-5.236 4.218s-1.558 5.176-1.31 6.756c.495 3.16 1.337 3.933 1.99 5.01.652 1.077 1.35 2.097 2.224 3.373 5.72 8.345 8.995 15.682 10.297 21.139s.544 8.638-.154 9.83c-.699 1.191-1.26 1.888-4.87 2.049-3.608.16-9.859-1.095-17.867-5.016-6.719-3.29-17.566-8.045-27.218-12.086-4.826-2.02-9.32-3.847-12.838-5.203a124 124 0 0 0-4.543-1.672 33 33 0 0 0-1.848-.578c-.633-.175-.749-.486-3.23-.486-2.51 0-2.638.36-3.06.5-.424.14-.661.238-.882.33-.441.184-.77.34-1.135.515-.73.352-1.551.774-2.517 1.282a284 284 0 0 0-7.033 3.85c-32.563 18.369-79.706 27.664-121.293 23.546a1701 1701 0 0 0-14.871-1.394c-25.245-2.23-54.547-11.467-88.061-28.243l-.002-.002-16.71-8.363a9.4 9.4 0 0 0-7.331-.457l-8.693 3.068c-14.492 5.115-25.56 12.446-41.434 27.051-3.478 3.2-6.277 4.357-7.81 4.6-1.534.243-1.915.086-2.905-.737-1.98-1.646-5.494-8.955-4.234-21.498v-.002l.69-6.877a9.394 9.394 0 0 0-14.675-8.673l-6.859 4.724a479 479 0 0 0-5.185 3.62c-.718.508-1.334.948-1.836 1.316-.503.367-.521.303-1.524 1.187-2.431 2.145-2.948 4.426-3.168 5.778a9.8 9.8 0 0 0-.072 2.882c.144 1.396.405 2.257.685 3.14.561 1.763 1.294 3.408 2.225 5.16 1.605 3.018 1.278 3.768 1.057 4.337s-1.204 1.981-4.326 3.57c-6.245 3.178-19.513 5.557-35.256 5.323-31.486-.47-73.345-10.378-99.428-27.72-34.22-22.75-53.352-63.826-55.354-102.081-2.001-38.256 12.438-71.8 42.987-83.768 2.236-.876 5.82-2.914 7.95-5.744 2.132-2.83 3.132-5.39 4.849-9.373 8.834-20.5 27.46-40.128 44.443-47.838l5.98-2.715a9.394 9.394 0 0 0 2.264-15.652l-6.117-5.299c-30.526-26.445-39.133-63.185-29.377-100.527s38.577-74.814 83.857-99.154c2.351-1.264 4.153-2.177 5.96-3.295 1.806-1.119 4.211-2.533 5.91-6.123s1.01-7.569.308-9.653-1.44-3.492-2.275-5.334c-21.022-46.362-25.534-110.62-11.969-146.463-.452 28.587 4.117 62.992 12.447 91.91 3.183 11.048 8.33 24.538 13.192 35.614 2.431 5.538 4.763 10.421 6.879 14.23 1.057 1.905 2.021 3.515 3.195 5.069.587.776 1.19 1.544 2.26 2.478s2.644 2.69 6.894 2.69c2.537 0 2.364-.219 3.303-.397s2.038-.408 3.305-.687a330 330 0 0 0 9.002-2.14c9.56-2.403 26.854-5.328 35.457-6.036h.004l3.287-.272a9.394 9.394 0 0 0 8.617-9.203l.38-22.5c.71-41.927 9.703-84.724 23.614-119.697 8.488-21.34 18.96-39.604 29.983-53.098m168.825 287.424c-.066.092-.266.395-.323.47-.431.58-.758.144.323-.47m28.261 242.72c.078.018.22.028.276.03.013 0 .137-.008.6.074.304.055.907.18 1.792.576a9.4 9.4 0 0 0-2.668-.68m-1.177.21a9.4 9.4 0 0 0-3.293 1.847l-.092-.322a10.4 10.4 0 0 1 2.137-1.162c.66-.265.886-.275 1.248-.363m60.55 60.34c.412.21.482.433.569.484.182.108-.029-.015-.32-.248-.06-.047-.182-.18-.249-.236" style="baseline-shift:baseline;display:inline;overflow:visible;opacity:1;vector-effect:none;fill:#fff;stroke-linecap:round;stroke-linejoin:round;stop-color:#000;stop-opacity:1" transform="translate(-108.446 -53.824)scale(.4578)"/><path d="M594.893 126.967c-.914.02-2.793 1.01-5.784 2.771C546.182 155.03 510.914 243.696 509.455 330l-.38 22.5-3.288.271c-9.573.788-26.65 3.692-36.978 6.29-6.43 1.617-12.424 2.939-13.319 2.939-3.137 0-17.408-32.505-23.394-53.287-11.247-39.045-15.299-90.875-9.252-118.367l1.793-8.155-2.172 1.424c-5.05 3.31-15.991 20.386-20.43 31.885-15.304 39.647-10.197 105.285 12.002 154.244 3.513 7.748 3.83 7.078-5.795 12.252-94.702 50.908-122.563 157.55-56.183 215.055l6.117 5.299-5.98 2.714c-19.854 9.013-39.387 29.931-49.188 52.674-3.353 7.781-4.042 8.695-7.598 10.088-70.303 27.54-63.738 153 10.592 202.418 56.89 37.824 171.265 39.528 151.447 2.256-1.403-2.639-2.19-5.115-1.75-5.504s3.888-2.833 7.66-5.432l6.86-4.724-.69 6.877c-2.887 28.748 12.87 41.85 30.655 25.486 15.476-14.24 24.825-20.384 38.2-25.105l8.694-3.069 16.711 8.364c34.233 17.135 64.58 26.826 91.44 29.199 3.998.353 10.646.978 14.771 1.387 43.606 4.317 92.135-5.139 126.834-24.713 5.133-2.896 9.639-5.266 10.012-5.266 2.145 0 32.89 12.872 45.547 19.068 35.792 17.524 49.303-5.525 24.472-41.748-3.412-4.977-3.466-5.32-.834-5.32 11.477 0 26-10.642 25.932-19-.19-22.961-49.967-66-76.334-66-.835 0-3.457-2.09-5.824-4.646-13.154-14.2-36.768-22.561-59.092-20.922-13.61.999-36.713-14.565-36.713-24.733v-.004c.075-.218 3.31-.93 7.25-1.592 11.72-1.967 19.778-3.871 27.395-6.472 3.485-1.19 6.514-1.889 10.001-2.242-.59.282-.306.488.77.533 1.054.043 1.645-.193 1.313-.526a.8.8 0 0 0-.247-.16 70 70 0 0 1 3.866-.138c23.386-.253 58.477-10.293 73.593-21.057l2.916-2.074 7.567 2.539c133.47 44.805 317.845-11.758 392.808-120.506 87.032-126.255 27.671-198.484-91.732-111.617-1.752 1.274-2.93 1.27-9.5-.043-27.291-5.457-65.576 5.776-94.402 27.699l-4.903 3.729-4.902-2.272c-6.535-3.028-6.414-2.591-2.395-8.652 4.702-7.09 8.423-16.46 9.217-23.219l.645-5.492 4.12-.672c41.63-6.78 79.011-46.081 84.731-89.08l1.215-9.117 5.367-1.694c51.91-16.363 101.319-83.899 88.848-121.445-15.95-48.02-167.013-26.787-277.041 38.94C889.873 294.254 794.755 382.48 752.494 445c-7.042 10.418-6.299 10.28-10.402 1.912-23.813-48.566-105.05-89.773-185.592-94.14l-5-.272-.81-9.5c-5.118-60.012 13.28-151.344 41.95-208.277 2.748-5.456 3.677-7.787 2.253-7.756" style="fill:#f70514;stroke:none;stroke-width:18.7858;stroke-linecap:round;stroke-linejoin:round;stroke-dasharray:none;stroke-opacity:1" transform="translate(-108.446 -53.824)scale(.4578)"/><path d="M670 899.978a1701 1701 0 0 0-14.77-1.385c-26.86-2.374-57.208-12.064-91.44-29.2l-16.711-8.365-8.694 3.069c-13.375 4.72-22.724 10.865-38.201 25.105-17.784 16.364-33.543 3.263-30.656-25.486l.691-6.875-6.86 4.724c-3.772 2.598-7.22 5.042-7.66 5.43-.44.39.347 2.866 1.75 5.505 19.817 37.272-94.557 35.568-151.448-2.255-74.33-49.418-80.894-174.879-10.59-202.42 3.555-1.392 4.244-2.306 7.597-10.087 9.8-22.744 29.335-43.662 49.188-52.674l5.98-2.714-6.117-5.299c-66.38-57.505-38.52-164.147 56.183-215.054 9.625-5.174 9.309-4.505 5.796-12.253-22.2-48.96-27.308-114.597-12.004-154.244 4.44-11.5 15.382-28.577 20.432-31.886l2.17-1.422-1.793 8.154c-6.046 27.492-1.995 79.322 9.252 118.367C438.082 329.495 452.352 362 455.49 362c.895 0 6.888-1.323 13.318-2.94 10.329-2.597 27.406-5.502 36.98-6.29l3.287-.27.38-22.5c1.46-86.304 36.726-174.97 79.654-200.261 7.655-4.51 8.039-3.969 3.53 4.983C563.97 191.656 545.574 282.988 550.69 343l.81 9.5 5 .271c80.542 4.368 161.779 45.576 185.592 94.141 4.103 8.37 3.36 8.506 10.403-1.912 42.26-62.52 137.378-150.746 208.005-192.935 110.028-65.727 261.092-86.96 277.042-38.94 12.47 37.546-36.938 105.082-88.848 121.445l-5.369 1.693-1.213 9.118c-5.72 43-43.103 82.3-84.732 89.08l-4.12.67-.646 5.493c-.794 6.76-4.513 16.131-9.215 23.22-4.02 6.061-4.14 5.624 2.394 8.652l4.902 2.27 4.903-3.728c28.826-21.922 67.11-33.156 94.402-27.699 6.57 1.314 7.748 1.32 9.5.045 119.403-86.867 178.764-14.64 91.733 111.616-74.963 108.748-259.338 165.311-392.808 120.506l-7.568-2.54-2.915 2.075c-15.117 10.764-50.207 20.805-73.594 21.057-6.267.068-10.473.746-15.704 2.533-7.616 2.601-15.674 4.505-27.394 6.472-3.987.67-7.25 1.388-7.25 1.597 0 10.168 23.102 25.732 36.713 24.732 22.324-1.639 45.938 6.721 59.092 20.92 2.368 2.557 4.988 4.648 5.824 4.648 26.367 0 76.145 43.039 76.335 66 .069 8.358-14.456 19-25.932 19-2.632 0-2.579.342.833 5.32 24.831 36.223 11.32 59.271-24.472 41.748C839.736 882.87 808.99 870 806.846 870c-.374 0-4.879 2.37-10.012 5.265-34.7 19.575-83.228 29.03-126.834 24.713M429.812 881.07c12.945-2.588 12.833-3.11-3.312-15.366-29.187-22.154-50.454-52.03-56.542-79.432-.764-3.442-2.273-6.028-5.41-9.273C358.11 770.34 349 753.405 349 748.098c0-.47 3.488 2.596 7.75 6.815 8.215 8.13 16.978 13.83 29.25 19.028 10.592 4.486 22.463 11.107 31.366 17.495 6.935 4.975 7.64 5.275 7.701 3.27.038-1.213.27-5.675.518-9.914 2.807-48.092-38.04-79.317-84.085-64.279-1.1.36 1.15-1.415 5-3.944s10.15-5.55 14-6.713c9.554-2.887 9.546-2.853 2.332-10.015-53.411-53.027-118.841 12.835-91.783 92.389 20.158 59.266 95.587 101.475 158.763 88.841m439.688-7.163c0-14.256-9.699-28.908-19.137-28.908-7.721 0-27.541-2.841-42.308-6.065-7.394-1.614-13.69-2.935-13.991-2.935-1.57 0 59.56 38.64 69.427 43.885 5.525 2.937 6.009 2.456 6.009-5.977m-368.81-4.736c6.56-6.571 14.588-13.524 18.06-15.643 8.482-5.175 8.466-5.24-4.1-16.429-16.616-14.794-38.338 16.172-28.261 40.287 1.95 4.668.747 5.359 14.3-8.215m201.268 6.834c55.927-7.932 77.375-49.69 36.179-70.437l-7.166-3.609-9.236 7.401c-33.926 27.19-76.411 43.53-118.223 45.47l-15.012.697 7.571 3.72c32.076 15.758 70.29 21.806 105.887 16.758m86.205-11.822c3.669-2.739 4.519-3.862 3.683-4.869-.943-1.137-14.846 9.458-14.846 11.314 0 .804 6.412-2.898 11.163-6.445M445.5 858.113c1.65-1.035 6.898-5.49 11.663-9.902 8.233-7.624 22.346-18.66 31.587-24.698 5.254-3.434 5.276-4.444.21-9.94-9.129-9.903-18.803-9.342-31.652 1.837-16.166 14.066-26.66 52.014-11.808 42.703M632.203 841.6c29.49-6.267 57.81-19.24 80.53-36.893l10.232-7.95-7.232-5.723c-8.756-6.928-19.94-18.59-25.804-26.906-5.212-7.39-3.62-7.382-15-.077-50.603 32.48-124.922 50.909-156.679 38.852-3.406-1.293-2.834-.283 4.435 7.84 27.221 30.414 63.5 40.636 109.518 30.857M427 839.435c0-10.403 17.006-31.706 32.594-40.832l7.539-4.413-12.316-6.55-12.317-6.55-1.154 7.705c-3.788 25.299-10.054 33.086-20.019 24.877-18.137-14.941-22.177-14.324-13.78 2.105 6.886 13.47 19.453 28.755 19.453 23.658m443.253-10.372c13.106-3.352 14.106-4.171 13.482-11.05-1.55-17.084-26.602-38.524-52.74-45.134-25.056-6.336-55.532 3.802-62.652 20.842l-1.486 3.557 4.321 4.46c14.004 14.45 41.179 26.15 68.822 29.634 6.716.846 22.68-.372 30.253-2.309M572 791.547c33.352-4.493 67.967-17.533 94.521-35.608 12.917-8.792 12.228-7.276 7.501-16.519-4.231-8.274-8.112-19.27-10.11-28.645-1.175-5.518-1.432-5.851-7.137-9.25-7.194-4.285-6.56-4.277-13.006-.157-57.59 36.814-151.122 49.84-187.066 26.054-5.325-3.524-5.33-3.053-.09 7.149 23.759 46.251 60.461 64.374 115.387 56.976m188.022-7.463c8.134-11.596 23.568-21.394 38.885-24.686 10.006-2.15 10.002-2.36-.157-7.372-33.837-16.695-86.63 3.327-63.691 24.156 16.5 14.983 19.361 15.888 24.963 7.902M479 782.595c0-.223-1.926-1.534-4.28-2.914-6.302-3.692-20.084-16.006-38.58-34.466-17.768-17.736-20.237-19.448-11.659-8.088 3.062 4.055 7.087 10.557 8.943 14.45 5.156 10.81 13.925 17.66 34.576 27.011 9.29 4.207 11 4.83 11 4.007m242.538-29.64c2.729-2.775 7.325-6.675 10.212-8.666 10.166-7.012-7.443-10.348-21.867-4.143-5.932 2.551-5.965 1.612.367 10.474 6.254 8.752 5.191 8.533 11.288 2.335m-184.435-26.919c35.477-5.04 84.455-24.78 100.814-40.633.23-.222-1.006-2.174-2.745-4.339-9.94-12.37-14.491-27.687-14.596-49.13l-.076-15.567-8.572 3.718c-32.08 13.911-66.418 19.88-97.395 16.926-13.117-1.25-20.442-2.818-13.772-2.948 16.828-.327 61.884-12.642 89.667-24.509 65.583-28.013 109.146-73.938 117.188-123.545 9.274-57.214-61.842-113.035-143.972-113.007l-6.144.002-.025 11.748c-.05 23.925-7.99 30.439-13.03 10.689-18.12-71.02-6.861-167.714 27.86-239.269 7.356-15.159 7.242-16.265-.56-5.422-42.844 59.547-59.808 181.306-35.275 253.188 2.86 8.379 2.425 9.485-3.393 8.633-8.187-1.2-15.973-12.856-20.286-30.372l-2.291-9.3-5 .652c-7.228.942-22.773 4.166-31.78 6.59-9.064 2.44-8.932 1.42-1.97 15.228 12.851 25.494 5.292 29.982-10.563 6.271-36.581-54.705-59.104-149.428-46.873-197.132 1.872-7.301 1.493-8.121-1.072-2.322-17.894 40.451-11.005 103.728 18.16 166.814 11.846 25.625 26.208 49.97 32.703 55.434 2.767 2.33 2.774 2.364.598 2.948-9.309 2.496-19.36-4.074-31.18-20.382-2.592-3.575-4.865-6.658-5.052-6.852-.606-.626-16.449 7.825-24.823 13.242-69.793 45.144-78.11 129.216-17.257 174.453 24.93 18.532 62.687 35.969 92.609 42.767l3.5.795-5 .71c-19.034 2.701-47.055-.739-67.097-8.237-7.031-2.631-6.768-3.588-3.394 12.328 14.64 69.063 59.284 99.89 130.094 89.83M465.5 564.606c-4.95-.722-12.199-2.28-16.108-3.46-7.955-2.402-12.57-2.677-17.294-1.03-4.084 1.423-4.548.88-2.78-3.258 2.087-4.882 6.53-8.605 12.973-10.87 9.455-3.322 11.695-2.61 7.162 2.28l-2.547 2.746 2.76 1.05c29.092 11.06 110.565-7.086 149.254-33.243 7.743-5.235 8.363-6.49 3.644-7.375-4.854-.91-4.546-1.478 2.686-4.948 11.314-5.428 25.227-3.703 36.84 4.566 6.753 4.809-2.77 6.602-15.59 2.936-3.846-1.1-7.065-2-7.152-2s-1.288 1.928-2.669 4.284c-17.246 29.43-99.821 55.823-151.179 48.323m-61.163-45.856c-11.126-10.24-15.347-24.36-13.076-43.75l.762-6.5-6.084-2.728c-6.617-2.968-6.854-4.146-1.153-5.73 14.357-3.987 39.988 2.157 71.081 17.039 17.199 8.231 23.831 7.346 30.338-4.047 2.951-5.168 3.465-5.068 4.276.83C492.158 486.052 482.811 498 471.6 498c-1.98 0-3.597.113-3.595.25.002.138 1.35 3.85 2.996 8.25 4.366 11.672 4.501 11.392-4.75 9.876-16.448-2.695-32.35-1.461-47.369 3.676-10.567 3.615-9.054 3.75-14.544-1.302m46.617-26.195c4.31-5.193-6.43-13.046-13.02-9.52-2.91 1.557-2.532 6.35.7 8.892 3.137 2.467 10.483 2.842 12.32.628m129.164 2.842c-3.935-4.47-8.118-13.454-8.118-17.435 0-2.31-.639-2.383-4-.462-6.99 3.995-16.739-.158-20.837-8.878-2.837-6.033-2.846-6.019 2.087-3.447 5.247 2.736 13.715 2.976 18.753.531 3.774-1.831 8.386-5.531 23.086-18.523 22.52-19.903 40.219-27.085 52.315-21.23 6.093 2.95 5.844 3.526-2.404 5.547-7.563 1.853-7.947 2.326-5.16 6.346 5.864 8.453 12.89 33.982 10.395 37.771-.404.615-3.885 1.44-7.735 1.834-11.871 1.216-30.328 8.618-47.504 19.052-7.057 4.286-6.04 4.39-10.878-1.106m41.293-36.474c5.337-6.342 2.233-15.808-4.726-14.416-10.543 2.109-11.966 17.493-1.62 17.493 2.967 0 4.3-.647 6.345-3.077M382.832 691.25c17.09-64.572-24.285-93.376-57.247-39.854-6.95 11.285-7.036 10.914 2.966 12.802 15.322 2.893 29.663 11.682 43.541 26.684 9.035 9.767 8.26 9.74 10.74.368m307.802-2.345c-7.955-2.57-26.5-16.387-24.566-18.303.238-.235 3.582.647 7.432 1.96 5.065 1.727 9.212 2.39 15 2.397 11.483.015 11.803-.483 5.264-8.191-19.456-22.935-29.875-61.57-21.886-81.157 1.986-4.87.78-4.063-10.632 7.105-16.96 16.6-20.246 23.14-20.246 40.308 0 28.974 25.552 58.248 50.5 57.855l5-.079zM784 673.13c6.24-2.004 22.634-10.828 21.754-11.709-.234-.234-3.087.492-6.34 1.613-39.612 13.65-74.987.194-93.276-35.481-5.213-10.167-4.769-10.355 4.241-1.797 5.28 5.016 9.951 8.303 16.195 11.397l8.775 4.348 12.076-.002c9.67-.002 12.722-.355 15.325-1.776 4.068-2.22 4.252-1.523-2.363-8.934-21.75-24.367-36.66-81.198-27.689-105.538 1.573-4.268 1.48-4.237-8.23 2.773C653.41 579.32 702.62 699.268 784 673.129m211-18.157c88.945-7.815 175.405-52.48 227.398-117.472 32.546-40.685 54.83-91.78 46.85-107.429-9.59-18.809-64.437-1.408-101.947 32.344l-5.198 4.678-4.021-2.051c-24.727-12.615-66.072-.965-100.143 28.219l-7.562 6.476-3.486-1.789c-16.613-8.523-35.047-6.113-60.391 7.894-41.603 22.993-77.438 29.386-110.61 19.733-13.627-3.966-25.88-9.982-15.362-7.544 10.604 2.459 39.403-.153 60.46-5.483 44.082-11.157 78.043-36.66 92.948-69.797 4.928-10.955 4.94-10.75-.619-10.753-9.134-.004-52.043-7.168-64.817-10.82-1.98-.567 5.503-1.059 22-1.446 75.259-1.769 120.056-25.243 144.42-75.68 5.146-10.653 5.14-11.05-.17-11.062-3.726-.008-19.847-1.706-36.75-3.87-6.577-.843-5.392-1.38 8-3.624 49.95-8.373 92.48-36.673 119.525-79.536 22.46-35.595 10.5-47.228-44.34-43.127-111.34 8.326-235.996 79.19-333.638 189.667-48.634 55.026-63.228 100.956-46.576 146.584 2.754 7.544 4.838 11.737 11.145 22.416l2.362 4-5.352-4.5c-21.95-18.458-34.567-56.256-28.873-86.5l.753-4-2.395 4.5C711.557 563.417 848.697 667.827 995 654.972m66.552-149.76c15.476-14.433 40.922-26.786 63.52-30.836 8.234-1.475 27.522-3.03 20.928-1.687-3.264.665-26.522 10.18-40.5 16.567-6.05 2.765-17.75 7.692-26 10.948s-16.488 6.792-18.307 7.858c-5.201 3.048-5.1 2.24.36-2.85m99.593-21.798c11.908-20.522 50.314-43.294 72.934-43.245 10.2.022 10.326.05 5.921 1.32-15.843 4.566-48.285 22.052-69.284 37.343-13.054 9.506-12.187 9.09-9.57 4.582M895 387.75c-14.133-9.647-9.169-19.84 27.407-56.282 53.956-53.757 133.791-96.774 197.491-106.413 4.069-.615 7.85-1.399 8.405-1.741s.71-.142.346.447c-.364.588-3.696 2.046-7.405 3.24-67.79 21.81-120.448 60.251-169.971 124.084-24.773 31.93-44.438 44.743-56.273 36.665m-45 266.845c0-.222-2.415-1.767-5.367-3.433-24.227-13.673-50.858-37.862-66.958-60.818-6.432-9.172-11.047-13.41-21.532-19.771-1.917-1.163-.897 1.797 4.82 13.984a126.58 126.58 0 0 0 57.655 59.31c10.629 5.36 31.382 12.454 31.382 10.728" style="fill:#020101;stroke-width:2.1844" transform="translate(-108.446 -53.824)scale(.4578)"/><g style="stroke-width:2.1844"><path d="M863.49 879.885c1.291.686 2.311 1.175 3.12 1.445-.801-.254-1.822-.755-3.12-1.445m-535.023-20.069c4.239 2.619 8.69 5.008 13.258 7.25-4.54-2.245-8.96-4.593-13.258-7.25m267.605-.568c8.01 3.935 17.006 7.454 26.215 10.33-9.053-2.765-17.842-6.217-26.215-10.33m243.038-15.119c4.685.55 8.655.871 11.253.871 9.438 0 19.137 14.651 19.137 28.908q0 .599-.004 1.145c-1.89-6.742-11.565-17.999-22.746-25.994-2.613-1.869-4.75-3.714-4.75-4.1 0-.228-1.138-.537-2.89-.83m-32.141-5.422c.558.121.512.103 1.086.229l1.228.263c-.816-.163-1.506-.327-2.314-.492M686.588 821.32a203 203 0 0 1-25.108 11.426c8.63-3.226 17.027-7.136 25.108-11.426m-232.992-2.091c-4.103 4.81-7.94 11.28-10.746 17.62 2.684-6.275 6.431-12.66 10.746-17.62m244.217-4.311c-2.378 1.495-4.793 2.908-7.252 4.309 2.468-1.383 4.871-2.834 7.251-4.309m-175.046-4.084a113.2 113.2 0 0 0 20.441 17.89q-10.96-7.314-20.441-17.89m215.371-5.266a58 58 0 0 1 6.795 4.036c-2.107-1.374-4.233-2.745-6.795-4.036m-150.221-17.136c-5.312 1.127-10.63 2.403-15.916 3.115q-3.334.45-6.58.773c7.328-.793 14.907-2.24 22.496-3.888m-252.716-2.7c.914-.015 3.197 1.35 7.382 3.682 13.113 7.306 13.408 7.571 16.629 14.98 9.27 21.324 30.693 47.994 48.701 60.626 3.348 2.348 6.088 4.43 6.088 4.625 0 .94-2.302-.098-12.035-5.428-28.473-15.594-53.28-42.724-64.631-70.684-2.223-5.476-3.31-7.78-2.135-7.8m142.696-4.055c.685.474 1.105.814 1.105.918a.4.4 0 0 1-.021.136c-.021-.203-.379-.55-1.084-1.054m-35.395-.588 12.316 6.55 12.317 6.55-7.54 4.414C444.006 807.729 427 829.032 427 839.436c0 5.096-12.568-10.187-19.453-23.659-8.397-16.429-4.358-17.046 13.78-2.105 9.964 8.209 16.23.422 20.019-24.877zm371.654-10.106c5.673-.083 11.386.515 16.842 1.895 26.138 6.61 51.19 28.05 52.738 45.135.12 1.32.18 2.415.106 3.35-1.556-3.642-14.166-16.12-23.063-22.647-33.306-24.432-73.517-28.642-88.574-11.227 8.275-9.863 24.933-16.255 41.951-16.506m-170.896-1.599c-15.882 7.922-33.23 14.051-50.813 18.162 17.369-4.135 34.883-10.316 50.813-18.162m41.484-10.805c1.676.01 2.58 1.854 5.186 5.549q.625.886 1.328 1.82c-.615-.624-.969-.428-1.445.424-3.06 5.467-31.04 20.162-50.532 26.537-17.236 5.638-44.24 10.379-50.215 8.817-.98-.257-5.559.396-10.173 1.45-4.285.98-9.977 1.683-16.194 2.112 35.022-4.454 78.801-19.78 112.23-41.236 5.69-3.652 8.14-5.482 9.815-5.473m-18.484-2.463c-7.087 4.805-14.8 9.178-22.85 13.201 8.106-4 15.798-8.42 22.85-13.2m98.961-10.141c11.15-.715 23.221.961 33.531 6.048 10.159 5.013 10.164 5.223.158 7.373q-.529.113-1.058.237l-5.02-1.819c-17.2-6.232-16.679-6.132-32.807-6.37l-15.476-.23-4.524 3.034c-5.755 3.86-9.3 7.205-10.503 10.54 1.08-9.784 17.113-17.622 35.699-18.813M383.602 735.1c1.23-.019 2.762.459 4.425 1.605 3.279 2.26 4.903 4.41 4.942 6.545.056 3.108-6.568 2.306-10.096-1.223-3.601-3.6-2.418-6.88.729-6.927m69.152-8.81" style="fill:#fff;stroke-width:2.1844" transform="translate(-108.446 -53.824)scale(.4578)"/><path d="M366.6 716.74c34.729 1.038 61.265 28.976 58.984 68.051a947 947 0 0 0-.41 7.521c-.23-11.479-7.364-29.715-16.611-42.017-13.089-17.411-36.345-28.446-62.249-29.535l-4.955-.21a1 1 0 0 0 .141-.036c8.633-2.82 17.085-4.013 25.1-3.774m295.736-10.967c.705 1.11 1.046 2.532 1.555 4.913-.496-2.315-.93-3.815-1.555-4.913m-12.376-7.478c1.485.005 3.117 1.027 6.403 2.99l-3.218 3.834c-17.722 21.108-73.453 39.505-108.645 35.863-5.5-.569-19.45-1.166-31-1.328-15.028-.21-22.99-.759-28-1.93q-1.142-.266-2.328-.57c44.128 8.162 114.086-6.053 160.598-35.785 3.201-2.047 4.656-3.079 6.19-3.074m-318.868-3.076a23 23 0 0 1 5.129.826c6.731 1.87 9.226 9.306 4.22 12.586-4.109 2.692-16.152 2.993-20.101.502-9.261-5.843-.857-14.453 10.752-13.914" style="fill:#fff;stroke-width:2.1844" transform="translate(-108.446 -53.824)scale(.4578)"/><path d="M344.746 686.434c6.081 3.1 12.158 7.52 18.086 13.406 7.215 7.162 7.222 7.128-2.332 10.015-3.85 1.164-10.15 4.184-14 6.713-3.232 2.123-5.336 3.715-5.277 3.96l.002.005v.002l.004.006.002.002.002.002.002.002-1.106-.047 6.186-3.974c3.402-2.186 9.11-4.988 12.685-6.225s5.562-2.261 4.414-2.275c-1.723-.021-12.478-12.317-17.256-19.727q-.642-.995-1.412-1.865m460.826-25.057q.14.003.182.043c.399.399-2.75 2.429-6.893 4.717 5.637-3.326 7.62-4.832 6-4.676a4 4 0 0 1 .711-.084m42.133-8.408c1.385.855 2.295 1.49 2.295 1.627a.2.2 0 0 1-.027.095c-.207-.335-.966-.908-2.268-1.722m185.561-3.916c-7.379 1.527-14.786 2.767-22.247 3.795 7.454-1.03 14.877-2.267 22.247-3.795m-226.209-11.899a134.6 134.6 0 0 0 20.904 10.875c-3.424-1.386-6.696-2.828-9.342-4.162-4.001-2.017-7.826-4.305-11.562-6.713m286.403-6.425c-7.577 3.073-15.238 5.904-23.038 8.449a350 350 0 0 0 23.039-8.45m29.346-13.492c-7.85 4.068-15.845 7.863-24.034 11.342a349 349 0 0 0 24.034-11.342m-452.856-5.3c.366 2.745.802 5.524 1.436 8.363-.634-2.839-1.07-5.619-1.436-8.363m106.324-2.736c.742.941 1.469 1.897 2.237 2.816-.77-.92-1.493-1.875-2.237-2.817m374.942-8.379a338 338 0 0 1-25.192 14.793 342 342 0 0 0 25.192-14.793m-381.895-1.384c.864 1.345 1.703 2.711 2.614 4.017-.916-1.307-1.747-2.674-2.614-4.017m-8.359-14.877c1.588 3.385 3.332 6.65 5.172 9.836a127 127 0 0 1-5.172-9.836m438.789-22.102c-14.316 13.989-30.428 26.583-47.687 37.842 17.21-11.21 33.237-23.885 47.687-37.842m-646.238-8.197c-3.404 1.1-6.786 2.07-10.319 3.045q5.23-1.425 10.319-3.045m227.004-16.592c.707 1.941 1.281 3.852 2.16 5.853a122 122 0 0 1-1.707-4.437c-.172-.472-.288-.944-.453-1.416m-5.952-34.984a110 110 0 0 0 .452 9.947c-.324-3.302-.455-6.621-.452-9.947m249.766-9.627c6.083-.284 11.76.574 17.197 2.548-5.441-1.974-11.118-2.83-17.197-2.548m-249.232-.953a108 108 0 0 0-.532 9.9c.026-3.285.185-6.586.532-9.9m287.566-2.5c-1.975 1.54-3.865 2.97-6.191 4.976l-6.026 5.193-.072-.037 7.563-6.476c1.54-1.32 3.158-2.41 4.726-3.656m-620.715-7.444c6.07.201 12.506 6.175 9.004 10.395-1.837 2.213-9.184 1.84-12.32-.627-3.233-2.543-3.611-7.336-.701-8.893 1.235-.661 2.616-.921 4.017-.875m334.762-.83c-.605 3.02-1.043 6.03-1.39 9.037.364-3 .761-6.006 1.39-9.037m-130.578-5.603a3 3 0 0 1-.104.212c-.854 1.596-.289 1.84 5.48 2.38 20.827 1.944 17.741 7.646-4.15 7.667-19.82.02-48.165 5.548-57.472 11.21-3.689 2.243-4.695 3.107-6.205 2.003 1.57 1.092 2.764.066 7.312-2.697 17.176-10.434 35.633-17.835 47.504-19.05 3.628-.372 6.927-1.126 7.635-1.725m518.933-11.301c-.38.403-.809.786-1.252 1.127zm-28.273-4.401c7.886.226 15.105 1.862 21.287 5.016l3.506 1.79c-.31.108-.593.169-.828.169-1.041 0-3.326 1.077-5.076 2.393-1.751 1.316-5.209 2.718-7.684 3.115-2.93.47-11.38 3.53-21.58 7.697 9.403-3.899 17.724-7.137 19.58-7.516 6.085-1.24-9.87-.01-18.84 1.346a215 215 0 0 1 13.84-2.082c4.188-.498-.435-.662-13-.459-17.029.275-20.83.647-30 2.932-16.044 3.998-23.372 6.553-31.477 12.195 23.447-17.538 49.205-27.199 70.272-26.596m131.48-6.308c-2.104 7.884-5.304 16.74-9.851 26.402 4.293-9.61 7.755-19.005 9.851-26.402m-650.332-9.347c6.056-.085 8.47 8.608 3.467 14.554-2.045 2.43-3.377 3.076-6.344 3.076-10.346 0-8.922-15.383 1.62-17.492a7 7 0 0 1 1.257-.139m632.241-2.23c1.493.026-.01 5.293-4.815 15.507-5.706 12.13-16.065 24.67-25.125 30.415-8.585 5.444-7.191 1.976 6.578-16.373 4.592-6.119 10.737-14.514 13.657-18.657 5.173-7.34 8.467-10.914 9.705-10.892m-612.014-.17c2.777 5.565 5.387 13.328 6.943 20.172-1.628-6.82-4.262-14.686-6.943-20.172m595.908-1.801c-2.827-.006-5.9.346-9.139 1.004 3.239-.658 6.312-1.01 9.14-1.004" style="fill:#fff;stroke-width:2.1844" transform="translate(-108.446 -53.824)scale(.4578)"/><path d="M1249.697 422.4c9.53-.42 16.634 1.95 19.551 7.67 2.461 4.826 1.792 13.24-.918 23.465 2.072-7.358 2.772-12.707 1.524-14.21-6.876-8.285-37.684-5.265-74.254 7.28-5.555 1.906-10.856 3.59-11.782 3.74-1.354.221-8.24 5.151-13.482 9.407-2.168 1.76-3.993 3.368-5.092 4.516l2.057-1.852q1.5-1.35 3.035-2.664c25.69-21.994 58.395-36.427 79.361-37.352m-291.006-2.316c-8.16.319-11.612.687-10.191 1.094 12.165 3.478 55.943 10.338 53.71 9.906-2.358-.456-4.067-.607-3.796-.336.89.89-5.093 11.582-11.564 20.666-16.879 23.692-41.1 41.973-68.245 51.508-11.666 4.098-11.65 3.526.098-3.754 19.126-11.85 35.585-27.228 48.547-45.356 7.042-9.848 7.07-9.123-.5-12.906-9.413-4.703-22.445-14.71-24.812-19.052-.773-1.418.725-1.638 16.753-1.77m18.795-.789c-2.385.104-4.537.38-6.986.437-2.062.049-3.447.105-5.227.157 4.26-.068 8.145-.396 12.213-.594m-503.382-2.906q.818.483 1.486.67-.668-.187-1.486-.67m-12.916-14.749c3.963 5.928 7.408 10.093 10.146 12.608-2.738-2.515-6.183-6.68-10.147-12.607m-32.717-1.493c.188.194 2.462 3.277 5.053 6.852 2.956 4.077 5.8 7.546 8.55 10.416-2.75-2.87-5.596-6.34-8.552-10.416-2.59-3.575-4.863-6.658-5.05-6.852m135.174-27.146c63.74-.022 120.846 33.595 138.888 75.394-.842-.794-1.033 2.371-1.033 9.557 0 14.616-1.662 18.69-3.443 8.443-7.722-44.42-58.258-76.392-134.16-84.876l-5.604-.627-.543 7.925c-.361 5.267-1.119 9.426-2.121 12.399 1.122-3.802 1.83-9.368 1.846-16.465l.025-11.748Zm510.785-45.129c-.998.499.364.836 3.57 1.246 16.903 2.165 33.024 3.863 36.75 3.871 3.104.007 4.395.147 3.904 2.389.484-2.296-.96-2.379-4.474-2.379h-4.819l-5.74 8.45c-13.015 19.16-32.56 36.383-52.424 46.195-8.916 4.404-15.144 6.47-12.113 4.017.23-.185 3.986-2.948 8.348-6.14 21.066-15.416 43.059-41.584 37.466-44.577-8.644-4.626-17.732-12.845-14.148-12.797.91.013 2.16-.085 3.68-.275m-565.088-11.527c-.14.015-.235.378-.264 1.07-.043 1.054.193 1.645.526 1.313.332-.333.368-1.195.08-1.916-.13-.325-.247-.478-.342-.467m600.787-68.254c3.13-.052 5.421.766 5.69 2.656.465 3.277-2.966 7.469-8.64 10.557-13.068 7.113-23.865 2.065-14.22-6.649 4.404-3.979 11.952-6.479 17.17-6.564m-10.463-19.002c-6.885 1.685-13.896 3.703-20.986 6.027 7.08-2.324 14.09-4.34 20.986-6.027m78.342-12.99c3.206.203 1.786 2.046-4.002 8.234-9.72 10.39-22.645 18.634-35.361 22.553-15.086 4.649-25.41.407-17.395-7.147 12.137-11.437 35.238-21.831 52-23.396 2.106-.197 3.689-.312 4.758-.244" style="fill:#fff;stroke-width:2.1844" transform="translate(-108.446 -53.824)scale(.4578)"/><path d="M1183.836 202.096c19.558.485 29.936 4.73 32.012 13.591l-7.649-1.976c-17.798-4.602-65.17-3.067-101.199 3.281a4719 4719 0 0 1-23 3.975c-12.106 2.057-25.164 5.765-38.885 10.926 39.174-16.26 78.385-26.243 116.07-29.061 8.593-.642 16.131-.898 22.65-.736m-768.351-3.438q.024.451-.187 1.592.21-1.14.187-1.592m-.152-.293a.1.1 0 0 0-.033.012q.017-.008.033-.012" style="fill:#fff;stroke-width:2.1844" transform="translate(-108.446 -53.824)scale(.4578)"/></g></g></svg>